<svg xmlns="http://www.w3.org/2000/svg" viewBox="0 0 24 24" aria-hidden="true">
  <path fill="#777777" d="M20.3 4.5A17 17 0 0 0 16.1 3l-.5 1.1a15.8 15.8 0 0 0-7.2 0L7.9 3a17 17 0 0 0-4.2 1.5C1 8.5.3 12.4.7 16.2A17.2 17.2 0 0 0 5.8 19l1.1-1.8a10.8 10.8 0 0 1-1.7-.8l.4-.3a12.4 12.4 0 0 0 12.8 0l.4.3a10.8 10.8 0 0 1-1.7.8l1.1 1.8a17.2 17.2 0 0 0 5.1-2.8c.5-4.4-.8-8.2-3-11.7ZM8.1 13.8c-1 0-1.8-.9-1.8-2s.8-2 1.8-2c1 0 1.8.9 1.8 2s-.8 2-1.8 2Zm7.8 0c-1 0-1.8-.9-1.8-2s.8-2 1.8-2 1.8.9 1.8 2-.8 2-1.8 2Z"/>
</svg>
